<svg width="138" height="84" fill="none" xmlns="http://www.w3.org/2000/svg"><g clip-path="url(#clip0)"><path d="M133.832 76.761c.051-3.865-27.552-7.366-61.652-7.818-34.1-.453-61.786 2.314-61.838 6.18-.05 3.866 27.552 7.366 61.652 7.819 34.101.452 61.786-2.315 61.838-6.18z" fill="#F1F3F5"/><path d="M40.81 33.37h-1.45v11.29h1.45V33.37z" fill="#D1D5DA"/><path d="M66.61 70.62l-.27-16.53 16.17-.16-1.31 16.84-.46-.39.47-14.26-13.4-.16-.74 15.06-.46-.4z" fill="#959DA5"/><path d="M62.33 32.36l.05 18.45-.25 16.49 1.1.18.4-14.25 15.23-.49-.83 13.89 1.12.61L80.19 50l.26-17.72-18.12.08zM38.78 32.89l.04 34.88.69.61 1.54.02-.32-14.2 15.43-.06-.49 13.16.86.61h1.28l1.09-34.92-20.12-.1z" fill="#959DA5"/><path d="M58.9 32.99l-19.15-.14v16.86l18.77.07.38-16.79zM63.15 32.3l.04 18.45.04 16.67 1.46-.12-.24-14.13 15.23-.49-.53 14.5 1.62-.08.23-17.16.26-17.72-18.11.08z" fill="#D1D5DA"/><path d="M67.07 71.02l-.27-16.53 16.76-.23-.19 16.49-2.17.02.47-14.25-13-.08.16 14.52-1.76.06z" fill="#D1D5DA"/><path d="M41.19 71.26l-.13-15.68 19.01-.16-1.3 16.25-.73-.41.44-14.32H42.51l-.64 14.81-.68-.49z" fill="#959DA5"/><path d="M41.87 71.75l-.2-16.17 19.01-.16-.38 16.25h-1.53l.32-14.73-15.6-.06.32 14.75-1.94.12z" fill="#D1D5DA"/><path d="M74 70c-.59 0-1.17-.53-1.76-1.55a8.378 8.378 0 01-.9-3.48 31.603 31.603 0 00-1.08-5.53 11.75 11.75 0 00-5.53-6.88l.17-.56a12.172 12.172 0 015.85 7.26 32.9 32.9 0 011.1 5.62 7.63 7.63 0 00.82 3.24c.59 1 1 1.25 1.26 1.26.26.01.49-.17.75-.54a2.19 2.19 0 01.9-.75 3.56 3.56 0 001.3-1.09c1-1.25 2.2-8.23-1.83-11.86-3.79-3.42-5.37-6.16-5-8.64.053-.313.123-.673.21-1.08l.59.13c-.09.4-.16.75-.21 1-.35 2.23 1.21 4.88 4.78 8.1 4.37 3.94 3 11.28 1.91 12.67a4 4 0 01-1.5 1.29 1.781 1.781 0 00-.69.57A1.54 1.54 0 0174 70zM72.94 39.1l-.55-.23c.296-.707.63-1.398 1-2.07l.53.29c-.363.652-.69 1.323-.98 2.01z" fill="#0366D6"/><path d="M79.05 69.59a2.001 2.001 0 01-1.52-1.16 6.846 6.846 0 01-.59-1.34l.57-.19c.137.424.318.833.54 1.22.39.67.78.9 1 .87.22-.03.25-.1.33-.29.073-.16.127-.328.16-.5.14-.59.33-1 1.56-1.71 1.67-.92 2.9-3.77 2-7.47-.75-3.24-5.58-5.74-5.63-5.77l.27-.53c.21.1 5.13 2.66 6 6.17.93 4-.48 7.1-2.34 8.13-1.09.59-1.16.9-1.26 1.32-.02.225-.067.446-.14.66a1 1 0 01-.85.64l-.1-.05zM48.14 71.36c-1.65 0-3.7-2.84-4.28-4.42a6.25 6.25 0 01.14-3.63c.16-.7.34-1.5.47-2.45.39-2.72-1.5-6.69-1.52-6.73l.55-.26c.08.17 2 4.18 1.57 7.08-.14 1-.33 1.78-.49 2.5a5.72 5.72 0 00-.18 3.28c.58 1.58 2.5 4 3.71 4 .66 0 .66-.17.67-.58a1.51 1.51 0 01.25-.93c.66-.87 3.19-5.29 2.62-9.28a10.11 10.11 0 00-3.06-6.14l.38-.47a10.55 10.55 0 013.27 6.53c.6 4.19-2 8.81-2.73 9.72a.93.93 0 00-.13.58c0 .56-.12 1.11-1.23 1.17l-.01.03z" fill="#0366D6"/><path d="M54 71c-1.1 0-2.78-1.44-3.64-3.83l.57-.2c.81 2.27 2.36 3.5 3.11 3.42a.669.669 0 00.57-.25 1.31 1.31 0 00.06-1v-.15l.09-.12a13.55 13.55 0 003-8.82c-.17-3.63-3-6.38-5.44-7.63l.27-.53c2.55 1.33 5.58 4.25 5.77 8.13a14 14 0 01-3.06 9.09 1.83 1.83 0 01-.17 1.35 1.27 1.27 0 01-1 .51L54 71zM26.1 45.52l-.25-.52 1-.44c1.89-.85 4.49-2 6.46-3.08 3.4-1.83 12.29-7.08 14.94-8.65l.3.52C45.88 34.89 37 40.14 33.58 42c-2 1.07-4.6 2.24-6.51 3.1l-.97.42zM27.06 38.89l-.19-.57C31 37 39.69 33.88 43 32.54a39.896 39.896 0 014.77-1.2l.42-.1.13.59-.43.09c-1.575.303-3.13.697-4.66 1.18-3.32 1.34-12.06 4.48-16.17 5.79z" fill="#0366D6"/><path d="M50.48 32c-3.14 0-6.44-.81-8.8-3.47-2.36-2.66-4.58-9.8-1.89-15.11l.54.27c-2.58 5.08-.57 11.76 1.8 14.44 5.59 6.32 17 1.59 17.45 1.39a13.37 13.37 0 004.6-3c1-1.1 1.35-1.66.79-2.76a2.56 2.56 0 00-.27-.4 2.92 2.92 0 01-.7-2.11c0-.4.11-.94.2-1.57.56-3.59 1.59-10.27-5.55-12.51a15 15 0 00-11.18.49l-.26-.54a15.59 15.59 0 0111.62-.52c7.63 2.39 6.51 9.67 6 13.17-.1.61-.18 1.14-.2 1.51a2.29 2.29 0 00.54 1.72c.129.152.243.316.34.49.74 1.47.13 2.32-.89 3.44a13.73 13.73 0 01-4.81 3.1A26.64 26.64 0 0150.48 32z" fill="#0366D6"/><path d="M43.13 29.82a52.926 52.926 0 01-5.51-3.77C34.84 24 29.28 14.79 29.45 14v-.19l.2-.07v.19-.2l2 .12-1.65.41c.6 1.51 5.3 9.37 7.88 11.31a50.401 50.401 0 005.44 3.72l-.19.53zM43.08 33.08c-7-1.3-13.11-6.5-17-10.64a62.673 62.673 0 01-6.93-8.73l-.3-.49h.68v.22l.14-.08c.1.16 10.53 16.66 23.57 19.1l-.16.62zM27 43.67h-.1v-.6a4.151 4.151 0 001.61-.3 3.92 3.92 0 001.61-1.09.9.9 0 00-.64-1.68 4.07 4.07 0 00-1.92.27h-.12l-.23-.55.13-.06a4.72 4.72 0 012.23-.31 1.49 1.49 0 011 2.63 4.57 4.57 0 01-1.86 1.26 5 5 0 01-1.71.43zM33.42 40.67c-.143.01-.287.01-.43 0a1.3 1.3 0 01-.87-2.33 4.27 4.27 0 011.7-1.11 4.16 4.16 0 012-.27 1.48 1.48 0 011.3.85 1.46 1.46 0 01-.43 1.48A4.2 4.2 0 0135 40.37a4.59 4.59 0 01-1.58.3zm2-3.17a4.088 4.088 0 00-1.37.26 3.8 3.8 0 00-1.46.94 1 1 0 00-.31.89 1.002 1.002 0 00.81.46 3.71 3.71 0 001.72-.25 3.61 3.61 0 001.46-.93.73.73 0 00-.5-1.35l-.35-.02z" fill="#0366D6"/><path d="M30.51 23.9c-1.14 0-2.57-1.09-3.46-2.74a4.26 4.26 0 01-.55-3.38 1.468 1.468 0 01.88-.91c1.2-.42 3 .74 4 2.66a4.3 4.3 0 01.55 3.38 1.491 1.491 0 01-.89.91c-.17.058-.35.085-.53.08zm-2.93-6.46a.84.84 0 00-.52.55 3.808 3.808 0 00.51 2.89c.88 1.6 2.37 2.69 3.27 2.37a.861.861 0 00.53-.55 3.75 3.75 0 00-.52-2.88c-.87-1.61-2.37-2.7-3.27-2.38zM35.4 28.4a3.88 3.88 0 01-2.88-1.84 2.57 2.57 0 01-.52-2.25 1.19 1.19 0 01.81-.76c1-.28 2.46.51 3.33 1.79a2.64 2.64 0 01.51 2.25 1.19 1.19 0 01-.82.75c-.14.04-.285.06-.43.06zm-2.13-4.31a1.26 1.26 0 00-.28 0 .59.59 0 00-.42.39 2.14 2.14 0 00.43 1.75c.71 1 1.93 1.74 2.66 1.54a.59.59 0 00.42-.39 2.071 2.071 0 00-.44-1.71 3.39 3.39 0 00-2.37-1.58zM40.88 31.59a3.86 3.86 0 01-2.35-.93 2.35 2.35 0 01-1-1.8 1.1 1.1 0 01.53-.87 3.1 3.1 0 013.27.69 2.351 2.351 0 011 1.81 1.1 1.1 0 01-.52.87 1.76 1.76 0 01-.93.23zM38.4 28.5a.46.46 0 00-.25.4 1.83 1.83 0 00.77 1.3 2.58 2.58 0 002.57.65.49.49 0 00.24-.4 1.79 1.79 0 00-.73-1.31 2.55 2.55 0 00-2.57-.64h-.03zM39.4 37.22c-.78 0-1-.32-1.13-.53-.13-.21-.16-.66.47-1.29a5.867 5.867 0 011.66-1.07 5.45 5.45 0 011.9-.49c.9-.06 1.18.31 1.27.52.09.21.16.67-.47 1.29a5.41 5.41 0 01-1.65 1.07 5.589 5.589 0 01-1.91.5h-.14zm3-2.78h-.11a4.999 4.999 0 00-1.69.44 4.908 4.908 0 00-1.47.95c-.3.29-.39.53-.35.62 0 .1.28.18.69.17a5.092 5.092 0 001.7-.44 5.26 5.26 0 001.47-1c.3-.3.39-.53.35-.63-.04-.1-.2-.11-.55-.11h-.04zM39.78 14.42a9.93 9.93 0 011-5s2.57-4.57 4.89-4.12c1.37.27 2.25 2.12 2.67 5.66l-.6.07c-.47-4-1.45-5-2.19-5.14C44 5.56 42 8.6 41.35 9.7a9.26 9.26 0 00-1 4.66l-.57.06zM43 29.72a3.53 3.53 0 01-.53-1.29 3.78 3.78 0 01.43-1.67c.22-.55-.17-1.41-.55-2.24a7.848 7.848 0 01-.65-1.78 7.92 7.92 0 015.32-8.14 9.08 9.08 0 015.32-.09c2.55.63 4.54.46 6.07-.52l.17-.12c1.47-.95 4.22-2.73 5.43-1.16a6 6 0 011.07 3.39h-.6a5.51 5.51 0 00-.94-3c-.88-1.14-3.42.51-4.63 1.3l-.18.11c-1.67 1.08-3.81 1.28-6.53.61a8.73 8.73 0 00-5 .06 7.41 7.41 0 00-4.94 7.47 7.38 7.38 0 00.61 1.64c.43.94.87 1.92.55 2.71-.212.429-.34.894-.38 1.37.078.358.224.697.43 1l-.47.35zM55.63 28c-.158 0-.316-.017-.47-.05-.45-.12-.56-.38-.58-.52a.56.56 0 01.11-.43 1.68 1.68 0 011.11-.56c.293-.067.597-.067.89 0 .46.11.56.37.59.52a.7.7 0 01-.39.68 2.3 2.3 0 01-.84.31l-.42.05zm-.46-.64c.261.043.528.043.79 0 .257-.026.5-.127.7-.29a1.23 1.23 0 00-.76 0 1.06 1.06 0 00-.73.33v-.04zM82 31.71c-5.24 0-8.91-1.59-10.94-4.74a2.26 2.26 0 01-.28-1.82 4.15 4.15 0 01.74-1.34l.14-.18A3.001 3.001 0 0072 21c-.24-1.22-.85-4.45-.85-4.45-.32-5.68 3.18-9.79 9.84-11.62a13.06 13.06 0 017.15 0L88 5.5a12.45 12.45 0 00-6.82 0c-6.36 1.75-9.7 5.64-9.41 11 0 0 .61 3.2.85 4.41a3.57 3.57 0 01-.42 3.1l-.14.19c-.283.34-.5.73-.64 1.15a1.63 1.63 0 00.2 1.32c2.12 3.3 6.2 4.78 12.14 4.42 5-.31 8.62-2 10.83-4.91 3.63-4.86 2.13-11.66 2.12-11.72a11.79 11.79 0 00-2.66-5l.45-.39a12.17 12.17 0 012.79 5.3c.07.29 1.58 7.14-2.22 12.22-2.32 3.1-6.11 4.83-11.27 5.15-.62-.05-1.2-.03-1.8-.03zM49.22 49.35l-5.45-1.73.08-.29c0-.09 2.85-9.53 3.73-12.9a6.89 6.89 0 011.49-3l.43.41a6.4 6.4 0 00-1.33 2.72c-.8 3-3.18 11-3.66 12.64l4.78 1.52 4-.3c-.08-1.26 0-2.71 0-4.24.06-3.86.12-8.24-1.27-12.51l.57-.18C54 35.86 54 40.3 53.89 44.21V49l-4.67.35z" fill="#0366D6"/><path d="M49.55 49.08L49 49c.85-7.26 1.27-12.18 1.26-14.63h.6c-.03 2.48-.46 7.43-1.31 14.71zM72 11.94c-.24-.59-2.35-5.77-1.34-6.91a1.25 1.25 0 01.84-.45 10.06 10.06 0 016.45 1.64l-.34.5a9.33 9.33 0 00-6-1.55c-.37.07-.47.19-.49.22-.51.59.35 3.73 1.43 6.32l-.55.23zM94.33 10.49c0-.06-1.49-5.91-4-6.38-1.51-.24-3.61 3.44-4.3 4.89l-.54-.25c.27-.58 2.71-5.6 5-5.23 2.88.54 4.4 6.57 4.47 6.83l-.63.14zM76.74 25.49h-.23c-.84-.07-1.39-.43-1.36-.89 0-.15.1-.43.55-.58a2.3 2.3 0 01.93-.1 1.86 1.86 0 011.21.47.65.65 0 01.15.42c.01.41-.54.68-1.25.68zm-.33-1a1.09 1.09 0 00-.67.16c.254.123.528.198.81.22.277.04.56-.006.81-.13a1.38 1.38 0 00-.78-.24l-.17-.01z" fill="#0366D6"/><path d="M84.51 31.59l-.19-.59c2.55-.86 4-1.71 4.4-2.61a2.699 2.699 0 00-.3-2.19c-.158-.34-.298-.686-.42-1.04-.33-1.15.58-2.48 1.54-3.9.24-.34.47-.69.69-1a5.05 5.05 0 00-.35-5.87c-.93-1.18-3.34-2.07-6.16-1.47-1.892.426-3.81.733-5.74.92a5 5 0 01-4-1.51 1.16 1.16 0 00-.84-.5 1.22 1.22 0 00-.84.52l-.47-.38a1.77 1.77 0 011.31-.74 1.7 1.7 0 011.29.71A4.432 4.432 0 0078 13.21a46.515 46.515 0 005.64-.91c3.2-.67 5.74.41 6.75 1.69a5.66 5.66 0 01.39 6.56l-.7 1.05c-.84 1.24-1.72 2.52-1.46 3.4.107.34.233.675.38 1a3.26 3.26 0 01.29 2.67c-.51 1.06-2.02 1.99-4.78 2.92zM91 43.63c-.7-3.58-.16-6.66 1.49-8.44a5.82 5.82 0 015.17-1.64 4.48 4.48 0 013.24 1.58c1.13 1.49.78 3.57.57 4.81 0 .19-.06.35-.08.49-.02.14 0 .42-.06.62-.06.79-.13 1.67-1.29 1.62-1-.06-1.74-.93-2.46-1.78s-1.38-1.64-2.24-1.64v-.6c1.13 0 1.93.94 2.7 1.86.77.92 1.29 1.52 2 1.56.53 0 .59-.15.66-1.07 0-.2 0-.42.06-.65.06-.23.05-.31.09-.51.19-1.14.51-3.06-.46-4.34a3.903 3.903 0 00-2.83-1.35A5.22 5.22 0 0093 35.59c-1.52 1.64-2 4.53-1.34 7.93l-.66.11zM64.78 48.05a14.369 14.369 0 011.42-6.28l.55.24a13.9 13.9 0 00-1.37 6l-.6.04zM69.2 37.88l-.48-.36a30.778 30.778 0 017.8-7.09l.33.5a30.126 30.126 0 00-7.65 6.95zM76 40.15l-.57-.2c.41-1.178.89-2.33 1.44-3.45l.54.27A29.354 29.354 0 0076 40.15zM73.92 49.11s-.07-.82-.1-1.65h.6c0 .82.1 1.62.1 1.62l-.6.03z" fill="#0366D6"/><path d="M92.46 47.06a8.002 8.002 0 01-3-.53c-2.77-1.83-7.85-5.27-10.83-7.76a7.67 7.67 0 01-2.69-7.84l.59.14A7 7 0 0079 38.31c3 2.47 8 5.9 10.78 7.72a8 8 0 002.7.44c1.91 0 5.47-.59 5.47-2a6.542 6.542 0 00-.07-.75 6.521 6.521 0 01-.08-.72 9.903 9.903 0 01.2-1.88l.59.11A9.568 9.568 0 0098.4 43a5.1 5.1 0 000 .64c.047.274.073.552.08.83.05 2.53-5.95 2.59-6.02 2.59z" fill="#0366D6"/><path d="M90.93 40.74a71.16 71.16 0 01-8.9-4.4c-2.83-1.8-3.74-2.77-4.24-3.68-.5-.91-.66-1.32-.67-1.33l.56-.23c.19.434.404.858.64 1.27.45.83 1.31 1.74 4 3.47a69.994 69.994 0 008.79 4.34l-.18.56z" fill="#0366D6"/><path d="M78.56 32.9l-.56-.11c.1-.54.17-1.12.23-1.7l.59.06c-.08.59-.16 1.18-.26 1.75zM91.9 36.73a43.23 43.23 0 01-11.61-5.12l.33-.5a42.35 42.35 0 0011.45 5l-.17.62zM107.3 39.3a44.9 44.9 0 01-6-.52l.08-.6c1.943.304 3.904.478 5.87.52h.34v.6h-.29z" fill="#0366D6"/><path d="M90.94 40.14a46.359 46.359 0 01-12.75-7.91l.41-.43c3.747 3.262 8 5.892 12.59 7.79l-.25.55zM104.1 44.5a87.9 87.9 0 01-6.1-1.69l.19-.57c1.94.62 4 1.19 6 1.68l-.09.58zM63.82 39.36a3.68 3.68 0 01-1.36-.28c-1.31-.52-2.08-1.57-1.75-2.4a1.38 1.38 0 011.18-.78 3.75 3.75 0 013.18 1.27 1.38 1.38 0 01.31 1.38 1.55 1.55 0 01-1.56.81zm-2.55-2.45c-.17.43.37 1.2 1.41 1.62 1.04.42 2 .23 2.14-.21a.8.8 0 00-.22-.78 3.13 3.13 0 00-2.6-1.05.83.83 0 00-.7.42h-.03zM70.5 42.29a5.881 5.881 0 01-1.78-.3 3.8 3.8 0 01-2.32-1.72 1.101 1.101 0 010-.94c.43-.88 2.1-1.12 3.81-.56a3.682 3.682 0 012.31 1.72 1.1 1.1 0 010 .94 2.15 2.15 0 01-2.02.86zm-2.08-3.23c-.76 0-1.32.21-1.48.53A.49.49 0 0067 40a3.2 3.2 0 002 1.39c1.5.49 2.82.26 3.07-.26a.49.49 0 000-.44 3.22 3.22 0 00-2-1.38 5.243 5.243 0 00-1.65-.25zM58.73 36.52a3 3 0 01-1.47-.47c-1-.59-1.5-1.44-1.18-2a1 1 0 011-.37c.457.063.896.22 1.29.46 1 .59 1.49 1.44 1.17 2a.88.88 0 01-.81.38zM56.9 34.3c-.17 0-.28 0-.3.09-.02.09.21.69 1 1.14.79.45 1.4.47 1.4.31 0-.16-.21-.7-1-1.15a2.65 2.65 0 00-1-.38l-.1-.01zM93.62 46.81a3.782 3.782 0 01-.38-1.69c0-1.66 1-3 2.24-3 1.24 0 2.24 1.35 2.24 3 .015.213.015.427 0 .64l-.59-.09a3.3 3.3 0 000-.55c0-1.33-.74-2.41-1.64-2.41-.9 0-1.64 1.08-1.64 2.41-.006.492.104.978.32 1.42l-.55.27z" fill="#0366D6"/><path d="M76.94 47.89h-.24a9.22 9.22 0 01-6.54-2.5L69.7 45l.37-.46c.16.12.32.26.48.4a8.76 8.76 0 006.17 2.35 4.001 4.001 0 003.9-2 1.3 1.3 0 00-.08-1.45l-.05-.06a7.32 7.32 0 00-3.13-2.68 49.143 49.143 0 00-5.16-1.93c-.9-.3-1.82-.61-2.74-.94l-3.77-1.35c-5.68-2-11-3.92-12.82-5.08l.33-.5c1.71 1.12 7 3 12.69 5l3.78 1.34c.91.33 1.82.64 2.72.94a49.643 49.643 0 015.22 2A7.92 7.92 0 0181 43.42a1.89 1.89 0 01.17 2.09 4.53 4.53 0 01-4.23 2.38z" fill="#0366D6"/><path d="M68.11 44.11C57.4 38.69 52.62 33.54 52.57 33.49l.44-.41c.05.05 4.77 5.13 15.37 10.49l-.27.54zM62.77 9.15l-.55-.24c1.47-3.29 1.22-4 1.17-4.13-2.75-1.18-6 .79-7.31 1.69L55.69 6c1.36-.95 4.84-3 7.87-1.77a.55.55 0 01.33.25c.38.59.02 2.12-1.12 4.67z" fill="#0366D6"/><path d="M71.92 45.91a3.36 3.36 0 00-2.42-.81c-1.38.19-2 .13-2.17-.23-.17-.36.17-.67.43-.9 1.35-1.19 6.53-1.5 6.75-1.51v.44c-.05 0-5.24.31-6.48 1.41-.31.27-.32.38-.32.39 0 .01.28.18 2-.08.15 0 .31 0 .38.05a4.54 4.54 0 012.12.94l-.29.3zM60.37 7.35l-.55-.25A3.62 3.62 0 0163 4.9v.6a3 3 0 00-2.63 1.85zM74.84 8.17c-1-1.33-1.75-2.28-3.24-2.28v-.6c1.91 0 2.88 1.35 3.73 2.53l-.49.35zM42.89 12.62v-.5c0-2.11.28-4.69 2.44-6l.32.51c-1.9 1.17-2.16 3.44-2.16 5.51v.49l-.6-.01zM91.24 10.4v-.51c-.11-1.51-.31-4.33-1.67-4.72l.16-.57c1.77.5 2 3.47 2.11 5.25v.49l-.6.06z" fill="#0366D6"/><path d="M26.2 55.67l-.24 18.27 2.05.12.18-18.85-1.99.46z" fill="#D1D5DA"/><path d="M28.89 55.06l-.7.15-.18 18.85 1.24-1.22-.36-17.78z" fill="#959DA5"/><path d="M22.91 77.23l1.1-.85V55.79l-.68.11-.42 21.33z" fill="#B2BBC4"/><path d="M23.33 55.9l-2.33.37-.11 2.41c.825.337 1.626.728 2.4 1.17l.04-3.95z" fill="#D1D5DA"/><path d="M20.85 58.68L20 77.23h2.92l.34-17.38a20.462 20.462 0 00-2.41-1.17z" fill="#E1E4E8"/><path d="M117.81 52.74l-1.46 20.1 1.48.91 1.27-20.95-1.29-.06z" fill="#959DA5"/><path d="M117.83 73.75l2.06-.05.48-20.84-1.27-.06-1.27 20.95z" fill="#D1D5DA"/><path d="M122.08 54.81l.12 23.88 1.91.72-.17-24.45-1.86-.15z" fill="#B2BBC4"/><path d="M125.34 55.11L124 55v3.41c.484-.073.971-.117 1.46-.13l-.12-3.17z" fill="#D1D5DA"/><path d="M124 58.37l.14 21 1.87-.23-.55-20.94c-.49.026-.977.083-1.46.17z" fill="#E1E4E8"/><path d="M2.64 55.14l10.04-7.39 115.98.6 6.51 5.93-132.53.86z" fill="#959DA5"/><path d="M2.64 55.14l132.53-.86.19 1.99L2.8 57.74l-.16-2.6z" fill="#6A737D"/><path d="M18.47 49.05l-7.72 3.73 17.71.73 4.71-3.82-14.7-.64z" fill="#FFF5BE"/><path d="M24.13 50.56l-5.72-.37c-.16 0-.17-.07 0-.13.177-.057.363-.084.55-.08l5.71.38c.16 0 .18.06 0 .12a1.607 1.607 0 01-.54.08z" fill="#F97583"/><path d="M20.74 51.91L15 51.54c-.16 0-.18-.07 0-.12a1.39 1.39 0 01.54-.09l5.72.38c.16 0 .17.06 0 .12a1.439 1.439 0 01-.52.08zM19.61 52.36L13.9 52c-.16 0-.17-.07 0-.12a1.45 1.45 0 01.55-.09l5.71.38c.16 0 .17.06 0 .12a1.25 1.25 0 01-.55.07zM24.92 51.14l-7.63-.5c-.17 0-.18-.07 0-.12a1.45 1.45 0 01.55-.09l7.63.5c.16 0 .18.07 0 .12a1.388 1.388 0 01-.55.09z" fill="#F66A0A"/><path d="M23.79 51.59l-7.63-.5c-.16 0-.18-.07 0-.12a1.48 1.48 0 01.55-.09l7.63.5c.16 0 .18.07 0 .13a1.67 1.67 0 01-.55.08z" fill="#FDAEB7"/><path d="M27.17 50.24l-7.63-.5c-.16 0-.17-.07 0-.13.177-.058.363-.085.55-.08l7.63.5c.16 0 .17.07 0 .12a1.449 1.449 0 01-.55.09z" fill="#F97583"/><path d="M10.75 52.78s-1.58-1.94-1.3-3.17c0 0 6.66 3.5 19 3.9l-17.7-.73z" fill="#FFDD6A"/><path d="M22.47 35.68a2.44 2.44 0 00-2.39.5l.23.88a5.871 5.871 0 012.23-1l-.07-.38z" fill="#178CFA"/><path d="M24.75 47.45l-2.21-11.37c-.42.14-.86.26-1.25.41a53.76 53.76 0 002.5 11.74c.103.01.207.01.31 0 .6-.23.7-.51.65-.78z" fill="#77BAFC"/><path d="M20.31 37.06l2.82 10.78a.55.55 0 00.66.39 53.764 53.764 0 01-2.5-11.74 2.91 2.91 0 00-.98.57zM21.68 35.07c-.92-2.07-2.49-4.13-1.44-6.41a3.07 3.07 0 00-1.47.41.42.42 0 00-.2.43l1.21 6.61a.19.19 0 00.13.13.16.16 0 00.17-.06 2.152 2.152 0 011.66-.6 1.46 1.46 0 00-.06-.51z" fill="#178CFA"/><path d="M22.77 35.42L21 29a.39.39 0 00-.32-.28 2.834 2.834 0 00-.41 0c-1 2.28.52 4.34 1.44 6.41.05.165.07.338.06.51.245.02.489.054.73.1a.22.22 0 00.23 0 .23.23 0 00.04-.32z" fill="#77BAFC"/><path d="M20.25 28c-.11-.51-.42-.84-.93-.72a.64.64 0 00-.49.36 2.33 2.33 0 011.2.93h.35l-.13-.57zM18.82 28.32l.13.61.3-.15a2.762 2.762 0 00-.47-.68c.01.074.022.147.04.22z" fill="#959DA5"/><path d="M18.83 27.67a1 1 0 000 .43c.19.202.348.431.47.68.22-.104.457-.165.7-.18a2.331 2.331 0 00-1.17-.93z" fill="#6A737D"/><path d="M19.2 31.57a5.84 5.84 0 01.41-2.72l-.21-.09a4.15 4.15 0 00-.93 4.39c.26-.51.46-1.06.73-1.58zM18.73 33.9c.112.292.256.57.43.83.41.6.25.71.34 1 .09.29 1.31-.09 1.36-.71.05-.62-.48-1.17-1.05-2.1l-1.08.98z" fill="#D1D5DA"/><path d="M19.42 32.24a1.998 1.998 0 01-.22-.67c-.27.52-.47 1.07-.73 1.58.073.255.16.505.26.75l1.08-1c-.13-.2-.27-.42-.39-.66z" fill="#F6F8FA"/><path d="M19.05 32.27a2.56 2.56 0 01-.22-1.41c-.37.27-.77.51-1.12.8a6 6 0 00.79 2.62c.286-.596.5-1.224.64-1.87l-.09-.14z" fill="#D1D5DA"/><path d="M18.91 34.93c.27.45.15.56.23.82.08.26 1.31-.09 1.36-.71a2.11 2.11 0 00-.44-1.14c-.37.34-.76.67-1.15 1.03zM19.06 29.68c-.47.409-.911.85-1.32 1.32-.02.233-.02.467 0 .7.35-.29.75-.53 1.12-.8a6 6 0 01.2-1.22z" fill="#6A737D"/><path d="M24.58 50.13v-.21h-.06c.021.092.038.186.05.28 0 0 .01-.06.01-.07z" fill="#D1D5DA"/><path d="M24.52 49.89a.15.15 0 00-.12.09c.031.085.058.172.08.26a.11.11 0 00.09-.07 2.74 2.74 0 00-.05-.28z" fill="#E8EAEE"/><path d="M24.32 50.13v.05a.11.11 0 00.13.06c-.013-.08-.03-.16-.05-.24l-.08.13z" fill="#6A737D"/><path d="M24 47.7c.07.39.13.79.2 1.18.14.18.27.35.4.54v-.48c-.09-.42-.18-.84-.3-1.26l-.3.02z" fill="#959DA5"/><path d="M23.66 47.79c-.142.047-.28.107-.41.18l1.07 2.16c.08-.13.13-.32.26-.21v-.5a4.5 4.5 0 01-.92-1.63z" fill="#586069"/><path d="M24.74 46.21a1.62 1.62 0 01-.67-.14 16.6 16.6 0 00-3.51-1.21 4.82 4.82 0 01-3.9-5.54 5.29 5.29 0 014.35-5c2.27-.42 4.34.67 5.83 3.07 1.61 2.59.44 5.89-.13 7.18a2.62 2.62 0 01-1.39 1.5c-.185.078-.38.125-.58.14zm-2.8-11.34a4.73 4.73 0 00-4.69 4.51 4.19 4.19 0 003.43 4.89 16.64 16.64 0 013.66 1.27c.255.095.535.095.79 0a2.1 2.1 0 001-1.17c.54-1.21 1.63-4.28.17-6.63a5.26 5.26 0 00-4.36-2.87z" fill="#0366D6"/><path d="M30.33 49.33l-5.38 1.78 53.31.96-3.46-1.46-44.47-1.28z" fill="#E8EAEE"/><path d="M41.78 49.45a5.269 5.269 0 011.34-3 10.36 10.36 0 00-2.88.4 23.721 23.721 0 01-9.73 1.06l-4.38 2.39c5.79.45 10.16.59 14.84.55a2.48 2.48 0 00.81-1.4z" fill="#F1F8FF"/><path d="M52.75 51.4l-.29-1.79a17.74 17.74 0 00-9.34-3.13 5.27 5.27 0 00-1.34 3 2.48 2.48 0 01-.81 1.4c3.07 0 6.27-.14 10.1-.29a2.148 2.148 0 001.71 1.08l-.03-.27z" fill="#DAEDFF"/><path d="M72.73 48.6a24.6 24.6 0 01-7.62-1.11c-4-1.11-10.88-.25-12.65 2.12l.29 1.79v.24a2.43 2.43 0 001.67-1l22.67.44-4.36-2.48z" fill="#C8E1FF"/><path d="M52.87 51.4s-7.52-4.51-14.8-2.4c-7.07 2.1-11.7 1.3-11.7 1.3l-.67 1.34L50.86 51s1.64 2.87 4.07.13l22.8 1.15-.61-1.21c-3.09.04-6.167-.401-9.12-1.31-4.89-1.34-13-1.22-15.13 1.64z" fill="#959DA5"/><path d="M52.8 51.78c-8-4.22-12.54-2.93-16.17-1.89-.82.24-1.6.46-2.35.6-3.025.41-6.089.436-9.12.08v-.12a36 36 0 009.08-.08c.74-.14 1.51-.36 2.33-.59 3.66-1 8.21-2.35 16.27 1.89l-.04.11z" fill="#6A737D"/><path d="M52.81 51.78c-8.5-3.57-12.72-2.38-16.11-1.42-.925.29-1.871.508-2.83.65-2.91.293-5.84.293-8.75 0v-.12c2.9.288 5.82.288 8.72 0a19.302 19.302 0 002.8-.64c3.41-1 7.66-2.17 16.19 1.42l-.02.11z" fill="#6A737D"/><path d="M52.81 51.78c-2.7-1.16-8.1-2.09-14.47-.89-4.536.67-9.135.794-13.7.37v-.12c.08 0 7.74.75 13.67-.37 6.4-1.21 11.83-.27 14.53.9l-.03.11z" fill="#6A737D"/><path d="M52.86 51.78l-.06-.11c7.08-3.88 12.58-2.43 16.59-1.36.73.19 1.42.37 2 .5 2.999.48 6.046.58 9.07.3v.12a35.999 35.999 0 01-9.11-.3c-.63-.13-1.32-.31-2-.51-3.98-1.05-9.45-2.5-16.49 1.36z" fill="#6A737D"/><path d="M52.85 51.78v-.11c8.62-3.39 12.83-2.08 16.22-1 .91.313 1.842.554 2.79.72 2.894.34 5.815.394 8.72.16v.12c-2.915.234-5.846.18-8.75-.16a19.7 19.7 0 01-2.83-.76c-3.38-1.04-7.57-2.34-16.15 1.03z" fill="#6A737D"/><path d="M76.78 52.06a48.138 48.138 0 01-9.45-.82c-6.34-1.36-11.76-.56-14.48.54v-.11c2.73-1.11 8.18-1.91 14.55-.55 4.49.768 9.055 1 13.6.69v.12s-1.76.13-4.22.13z" fill="#6A737D"/><path d="M79.19 53.59L55.3 52a2.64 2.64 0 01-2.63 1.2A2.92 2.92 0 0150 51.9l-25.62.76.62-1.55 26-.28c.58.36.3.9 1.81.94 1.51.04 1.17-.45 1.7-1l23.85 1.28.83 1.54z" fill="#586069"/><path d="M75.78 42.46a3.49 3.49 0 012 1.81c-.55-1.46-5.5-2.13-13.91-.22.24-.77 4.94-3.65 11.91-1.59zM58.35 46a3.4 3.4 0 01-1.62-.16 15.28 15.28 0 00-4.06 3.49l.14 2a18.31 18.31 0 015.39-4.6h-.09c-.24-.2.49-.73.24-.73z" fill="#DAEDFF"/><path d="M75.78 42.46L70 41.17a34.631 34.631 0 00-13.26 4.71c.52.184 1.075.239 1.62.16.25 0-.48.49-.24.73h.09a31.06 31.06 0 0117.57-4.31z" fill="#F1F8FF"/><path d="M90.85 46.69l11.92 3.19 25.16-.92-15.41-1.46-21.67-.81z" fill="#79B8FF"/><path d="M127.93 49l5.82-15.59c-7.82 7.63-17.46 13-27.75 16.9L127.93 49z" fill="#2188FF"/><path d="M108.43 29.89l-6.09 20.6 3.66-.22c10.29-3.89 19.93-9.27 27.75-16.9l1.55-4.15-26.87.67z" fill="#79B8FF"/><path d="M120.499 41.675c1.215-1.06 1.581-2.628.819-3.502-.763-.874-2.366-.722-3.581.338-1.215 1.06-1.582 2.629-.819 3.503.763.873 2.366.722 3.581-.339z" fill="#F1F8FF"/><path d="M117.7 42.52c0-.1.07-.23.09-.31.13-.4.23-.92.65-1.14a1 1 0 01-.51-.19c-.3-.26-.19-.95.14-1.36l.21-.25s.07-.39.19-.45a.525.525 0 01.35.26c.229-.059.464-.096.7-.11a1 1 0 001.06-.19 1.128 1.128 0 01-.12.48c0 .19 0 .38-.07.58a1.609 1.609 0 01-1.2 1.23.312.312 0 01.22.3.81.81 0 00.42-.14c.13-.13.17-.35.31-.53a.578.578 0 01.51-.25c0 .06 0 .08-.11.13l-.19.17c-.12.12 0 .35-.11.5-.11.35-.53.47-.94.56-.06.18-.15.46-.2.64-.298.19-.648.281-1 .26-.14 0-.3 0-.36-.11s-.05-.02-.04-.08z" fill="#79B8FF"/><path d="M101.24 50.12l1.53-.24 5.66-19.99-1.95-.99-5.24 21.22z" fill="#2188FF"/><path d="M132.64 27.84l-26.16 1.06 1.95.99 26.87-.67-2.66-1.38z" fill="#C8E1FF"/><path d="M93 48a5.14 5.14 0 01-1.28-1.08l-.83-.22v2l9.2 2.11A56.63 56.63 0 0193 48z" fill="#2188FF"/><path d="M93 48a56.633 56.633 0 007 2.77l2.49.57.25-1.46-11.09-3c.382.448.84.827 1.35 1.12z" fill="#79B8FF"/><path d="M95.35 48.89c-.1 0-.18-.08-.17-.11v-.24s.09-.05.19 0l1.68.46c.1 0 .18.07.18.11v.24h-.18l-1.7-.46zM97.43 49.45s-.05 0-.05-.08v-.24a.05.05 0 01.06 0l.56.15a.1.1 0 01.06.08v.25h-.07l-.56-.16zM98.63 49.74a.25.25 0 01-.12-.11.14.14 0 010-.14.1.1 0 01.12 0 .181.181 0 01.125.17.17.17 0 01-.015.07.12.12 0 01-.11.01zM127.93 49l-25.16.92-.08.48c8.39-.83 16.78-.28 25.18-.94l.06-.46z" fill="#0366D6"/><path d="M102.69 50.36l-.17 1 25.23-1 .12-.88c-8.4.6-16.79.05-25.18.88z" fill="#2188FF"/><path d="M111.68 38.41c-.61 0-1.49-.3-2.07-1.82-.75-1.94-.63-5-.4-7.16a.44.44 0 00-.15-.26c-.86-.89-4.3-1.88-6.94-1.72-3.15.2-4.45.29-10.6 2l-.17-.58c6.22-1.76 7.54-1.84 10.73-2 2.83-.16 6.44.9 7.41 1.91a.904.904 0 01.31.73c-.18 1.75-.37 5 .37 6.88.4 1 1 1.53 1.69 1.43a2.056 2.056 0 001.59-1.69 4.882 4.882 0 011.3-2.14c1.36-1.67 3.23-4 3.16-7.44a2.908 2.908 0 00-1.34-2.3c-3.67-2.7-13.52-2.49-20.07-.61l-.17-.57c6.83-2 16.73-2.15 20.59.7a3.492 3.492 0 011.59 2.77c.07 3.7-2 6.19-3.29 7.83a4.865 4.865 0 00-1.17 1.8 2.649 2.649 0 01-2.1 2.24h-.27z" fill="#0366D6"/><path d="M26.15 1l-7.31 19.05.87.31L27 1.04 26.15 1z" fill="#F9C513"/><path d="M30.37 8.1L27 1.04l-7.29 19.32 5.18 1.84 5.48-14.1z" fill="#DCA82D"/><path d="M26.88 1.89l3.33.08-6.66 19.58-3.33-1.26 6.66-18.4z" fill="#FFF4B5"/><path d="M28.025.42l-8.083 21.448.224.084L28.25.505 28.025.42zM21.31 22.56l-.23-.08L28.79.51l.23.08-7.71 21.97zM22.32 22.81l-.23-.08 7.39-21.37.23.08-7.39 21.37z" fill="#F7E197"/><path d="M33.38 7.48l-2.2-5.98-7.19 20.46 4.82 1.78 4.57-16.26z" fill="#DCA82D"/><path d="M30.09 1.38l-6.83 20.35.73.23L31.18 1.5l-1.09-.12z" fill="#F9C513"/><path d="M27.81 16.93a1.81 1.81 0 01-1-.36 8 8 0 00-3.63-1.1c-2.23-.29-3.71-1.12-4.38-2.45-1.1-2.18.36-4.87.42-5a5.93 5.93 0 016.67-2.47c2.58.77 3.72 2.3 4.21 5.66.44 3-.68 4.61-1 5a1.71 1.71 0 01-1.29.72zm-3.64-11a5.32 5.32 0 00-4.47 2.43s-1.36 2.51-.4 4.4c.58 1.15 1.9 1.86 3.92 2.12a8.55 8.55 0 013.86 1.19 1.3 1.3 0 00.73.27 1.15 1.15 0 00.76-.47 5.76 5.76 0 00.89-4.54C29 8.19 28 6.84 25.68 6.14a5.26 5.26 0 00-1.51-.22v.01zM89.9 25.94l-.29-.52a8.907 8.907 0 012.16-.83 10.695 10.695 0 011.91-.32v.6a9.759 9.759 0 00-1.79.3 8.747 8.747 0 00-1.99.77zM90.15 27.19l-.2-.56a4.997 4.997 0 011.3-.29 4.31 4.31 0 012.09.26l-.24.55a3.62 3.62 0 00-1.79-.21c-.395.04-.784.125-1.16.25z" fill="#0366D6"/><path d="M91.85 25.18a.3.3 0 01-.08-.59 10.698 10.698 0 011.91-.32.29.29 0 01.31.28.3.3 0 01-.28.32 9.759 9.759 0 00-1.79.3l-.07.01zM93.22 27.18a.27.27 0 01-.12 0 3.62 3.62 0 00-1.79-.21.3.3 0 01-.299-.153.3.3 0 01.117-.41.302.302 0 01.112-.037 4.22 4.22 0 012.1.26.3.3 0 01-.12.58v-.03zM71.4 24.86a.27.27 0 01-.21-.09 5.35 5.35 0 00-2.49-1.1.31.31 0 01-.25-.35.3.3 0 01.34-.25 6 6 0 012.82 1.28.291.291 0 010 .42.3.3 0 01-.21.09zM68.29 26a.31.31 0 01-.3-.27.3.3 0 01.27-.33 25.253 25.253 0 012.84-.15.3.3 0 110 .6 23.33 23.33 0 00-2.76.15h-.05zM65.38 23.9h-.1a.3.3 0 01-.18-.38c.44-1.25 2.62-1.94 3.21-1.82a.3.3 0 11-.11.59c-.41-.08-2.22.53-2.53 1.43a.31.31 0 01-.29.18zM65.54 25.18a.3.3 0 01-.21-.09.29.29 0 010-.42 3.78 3.78 0 013.22-.41.3.3 0 01.15.4.289.289 0 01-.39.15 3.27 3.27 0 00-2.57.29.28.28 0 01-.2.08zM42.15 26.69a4.001 4.001 0 00-1.54-.61 7.387 7.387 0 00-1.61-.16v-.6c.61-.004 1.22.053 1.82.17a4.811 4.811 0 011.76.71l-.43.49z" fill="#0366D6"/><path d="M40.68 26.08h-.07a7.387 7.387 0 00-1.61-.16.289.289 0 01-.31-.28.3.3 0 01.28-.32c.61-.004 1.22.053 1.82.17a.3.3 0 01.23.35.31.31 0 01-.34.24zM39.93 29.24l-.52-.31a3.46 3.46 0 011.22-1.14 2.78 2.78 0 011.73-.44l-.08.6a2.22 2.22 0 00-1.35.35 2.85 2.85 0 00-1 .94z" fill="#0366D6"/><path d="M39.67 29.38a.28.28 0 01-.15 0 .3.3 0 01-.11-.41 3.46 3.46 0 011.22-1.14.288.288 0 01.332.012.3.3 0 01-.032.498c-.405.227-.748.55-1 .94a.31.31 0 01-.26.1z" fill="#0366D6"/></g><defs><clipPath id="clip0"><path fill="#fff" d="M0 0h138v84H0z"/></clipPath></defs></svg>